<svg width="24" height="24" viewBox="0 0 24 24" fill="none" xmlns="http://www.w3.org/2000/svg">
<mask id="mask0_20_148" style="mask-type:alpha" maskUnits="userSpaceOnUse" x="0" y="0" width="24" height="24">
<rect width="24" height="24" fill="#D9D9D9"/>
</mask>
<g mask="url(#mask0_20_148)">
<path d="M12 15.975C11.8667 15.975 11.7417 15.9542 11.625 15.9125C11.5084 15.8708 11.4 15.8 11.3 15.7L6.70005 11.1C6.51672 10.9167 6.42505 10.6833 6.42505 10.4C6.42505 10.1167 6.51672 9.88332 6.70005 9.69999C6.88338 9.51665 7.11672 9.42499 7.40005 9.42499C7.68338 9.42499 7.91672 9.51665 8.10005 9.69999L12 13.6L15.9 9.69999C16.0834 9.51665 16.3167 9.42499 16.6 9.42499C16.8834 9.42499 17.1167 9.51665 17.3 9.69999C17.4834 9.88332 17.575 10.1167 17.575 10.4C17.575 10.6833 17.4834 10.9167 17.3 11.1L12.7 15.7C12.6 15.8 12.4917 15.8708 12.375 15.9125C12.2584 15.9542 12.1334 15.975 12 15.975Z" fill="white"/>
</g>
</svg>
